<svg width="5026" height="678" viewBox="0 0 5026 678" fill="none" xmlns="http://www.w3.org/2000/svg">
<path d="M0.679688 671.246V0.691406H298.739C372.766 0.691406 437.7 14.7409 493.548 42.8406C549.396 70.9403 592.901 109.896 624.071 159.709C655.24 209.521 670.825 268.275 670.825 335.969C670.825 403.024 655.24 461.778 624.071 512.229C592.901 562.042 549.396 600.997 493.548 629.097C437.7 657.199 372.766 671.246 298.739 671.246H0.679688ZM127.306 565.873H292.894C344.192 565.873 388.351 556.294 425.365 537.135C463.026 517.977 491.927 491.154 512.055 456.669C532.838 422.183 543.225 381.95 543.225 335.969C543.225 289.35 532.838 249.116 512.055 215.269C491.927 180.783 463.026 153.961 425.365 134.802C388.351 115.644 344.192 106.064 292.894 106.064H127.306V565.873ZM1421.53 671.246V159.709H1537.44V300.525L1523.8 259.334C1539.39 224.848 1563.74 198.665 1596.86 180.783C1630.62 162.902 1672.51 153.961 1722.51 153.961V267.955C1717.31 266.678 1712.44 266.04 1707.9 266.04C1703.35 265.401 1698.8 265.082 1694.26 265.082C1648.15 265.082 1611.47 278.493 1584.19 305.315C1556.92 331.499 1543.28 370.774 1543.28 423.141V671.246H1421.53ZM2482.3 153.961C2523.86 153.961 2560.56 161.944 2592.37 177.91C2624.84 193.875 2650.17 218.462 2668.35 251.671C2686.53 284.24 2695.62 326.389 2695.62 378.118V671.246H2573.87V393.445C2573.87 348.102 2563.8 314.256 2543.67 291.904C2523.54 269.552 2494.64 258.376 2456.98 258.376C2430.35 258.376 2406.66 264.124 2385.87 275.619C2365.75 287.114 2349.83 304.037 2338.15 326.389C2327.1 348.742 2321.59 377.16 2321.59 411.646V671.246H2199.83V393.445C2199.83 348.102 2189.76 314.256 2169.64 291.904C2149.51 269.552 2120.61 258.376 2082.94 258.376C2056.32 258.376 2032.62 264.124 2011.84 275.619C1991.71 287.114 1975.8 304.037 1964.11 326.389C1953.07 348.742 1947.55 377.16 1947.55 411.646V671.246H1825.8V159.709H1941.71V295.736L1921.25 255.502C1938.79 222.294 1964.11 197.068 1997.23 179.825C2030.99 162.583 2069.31 153.961 2112.17 153.961C2160.87 153.961 2203.08 165.776 2238.79 189.405C2275.16 213.034 2299.18 248.797 2310.87 296.694L2263.14 280.409C2280.03 242.091 2307.95 211.437 2346.91 188.447C2385.87 165.456 2431.01 153.961 2482.3 153.961Z" fill="#2254C5"/>
<path d="M3096.65 677.985C3038.86 677.985 2988.21 666.811 2944.7 644.457C2901.85 621.467 2868.4 590.174 2844.38 550.579C2821 510.985 2809.31 465.962 2809.31 415.511C2809.31 364.42 2820.67 319.397 2843.4 280.442C2866.78 240.847 2898.6 209.874 2938.86 187.522C2979.77 165.17 3026.2 153.994 3078.15 153.994C3128.8 153.994 3173.93 164.851 3213.54 186.564C3253.15 208.277 3284.32 238.931 3307.05 278.526C3329.78 318.121 3341.14 364.74 3341.14 418.384C3341.14 423.494 3340.81 429.241 3340.17 435.627C3340.17 442.013 3339.84 448.08 3339.19 453.828H2905.74V374.319H3274.91L3227.18 399.226C3227.82 369.849 3221.66 343.985 3208.67 321.633C3195.68 299.281 3177.83 281.719 3155.1 268.946C3133.02 256.174 3107.37 249.788 3078.15 249.788C3048.28 249.788 3021.98 256.174 2999.25 268.946C2977.17 281.719 2959.64 299.6 2946.65 322.591C2934.32 344.943 2928.14 371.445 2928.14 402.099V421.258C2928.14 451.912 2935.29 479.054 2949.57 502.683C2963.86 526.312 2983.99 544.512 3009.96 557.285C3035.94 570.058 3065.81 576.444 3099.58 576.444C3128.8 576.444 3155.1 571.974 3178.47 563.033C3201.85 554.092 3222.63 540.042 3240.81 520.883L3306.08 594.645C3282.7 621.467 3253.15 642.219 3217.44 656.91C3182.37 670.958 3142.11 677.985 3096.65 677.985ZM3764.29 671.279V567.822L3757.47 545.79V364.74C3757.47 329.616 3746.76 302.474 3725.33 283.315C3703.9 263.518 3671.43 253.619 3627.92 253.619C3598.7 253.619 3569.81 258.09 3541.23 267.031C3513.31 275.972 3489.61 288.425 3470.13 304.39L3422.4 217.218C3450.32 196.143 3483.44 180.497 3521.75 170.279C3560.71 159.422 3600.98 153.994 3642.53 153.994C3717.86 153.994 3775.98 171.875 3816.89 207.639C3858.44 242.763 3879.23 297.365 3879.23 371.445V671.279H3764.29ZM3600.65 677.985C3561.69 677.985 3527.6 671.601 3498.37 658.826C3469.15 645.415 3446.42 627.214 3430.19 604.224C3414.61 580.595 3406.81 554.092 3406.81 524.715C3406.81 495.977 3413.63 470.113 3427.27 447.122C3441.55 424.132 3464.61 405.931 3496.43 392.52C3528.24 379.109 3570.45 372.403 3623.05 372.403H3774.03V451.912H3631.82C3590.26 451.912 3562.33 458.618 3548.05 472.029C3533.77 484.801 3526.62 500.767 3526.62 519.926C3526.62 541.638 3535.39 558.881 3552.92 571.654C3570.45 584.427 3594.8 590.813 3625.97 590.813C3655.84 590.813 3682.47 584.107 3705.85 570.696C3729.87 557.285 3747.08 537.488 3757.47 511.304L3777.93 583.149C3766.24 613.167 3745.14 636.472 3714.61 653.079C3684.74 669.685 3646.76 677.985 3600.65 677.985ZM4196.2 677.985C4152.7 677.985 4110.81 672.559 4070.55 661.7C4030.94 650.205 3999.45 636.472 3976.07 620.509L4022.82 529.505C4046.2 544.193 4074.12 556.327 4106.59 565.906C4139.06 575.486 4171.53 580.275 4204 580.275C4242.31 580.275 4269.9 575.166 4286.79 564.948C4304.32 554.731 4313.09 541 4313.09 523.757C4313.09 509.708 4307.25 499.171 4295.56 492.145C4283.87 484.482 4268.61 478.734 4249.78 474.903C4230.94 471.071 4209.84 467.559 4186.46 464.365C4163.73 461.172 4140.68 457.021 4117.31 451.912C4094.58 446.164 4073.8 438.181 4054.97 427.964C4036.13 417.107 4020.87 402.738 4009.19 384.857C3997.5 366.975 3991.65 343.346 3991.65 313.969C3991.65 281.4 4001.07 253.3 4019.9 229.671C4038.73 205.403 4065.03 186.884 4098.8 174.111C4133.22 160.7 4173.8 153.994 4220.55 153.994C4255.62 153.994 4291.01 157.826 4326.73 165.489C4362.44 173.153 4391.99 184.01 4415.36 198.059L4368.61 289.063C4343.93 274.374 4318.93 264.476 4293.61 259.367C4268.93 253.619 4244.26 250.746 4219.58 250.746C4182.57 250.746 4154.97 256.174 4136.79 267.031C4119.25 277.887 4110.49 291.617 4110.49 308.222C4110.49 323.549 4116.33 335.044 4128.02 342.707C4139.71 350.371 4154.97 356.438 4173.8 360.908C4192.63 365.378 4213.41 369.21 4236.14 372.403C4259.52 374.958 4282.57 379.109 4305.3 384.857C4328.03 390.604 4348.8 398.587 4367.64 408.805C4387.12 418.384 4402.7 432.115 4414.39 449.996C4426.08 467.877 4431.92 491.187 4431.92 519.926C4431.92 551.857 4422.18 579.637 4402.7 603.266C4383.87 626.893 4356.92 645.415 4321.86 658.826C4286.79 671.601 4244.91 677.985 4196.2 677.985ZM4781.26 677.985C4723.47 677.985 4672.82 666.811 4629.31 644.457C4586.45 621.467 4553.01 590.174 4528.99 550.579C4505.61 510.985 4493.92 465.962 4493.92 415.511C4493.92 364.42 4505.28 319.397 4528.01 280.442C4551.39 240.847 4583.21 209.874 4623.47 187.522C4664.38 165.17 4710.81 153.994 4762.76 153.994C4813.41 153.994 4858.54 164.851 4898.15 186.564C4937.76 208.277 4968.93 238.931 4991.66 278.526C5014.39 318.121 5025.75 364.74 5025.75 418.384C5025.75 423.494 5025.42 429.241 5024.78 435.627C5024.78 442.013 5024.45 448.08 5023.8 453.828H4590.35V374.319H4959.52L4911.79 399.226C4912.43 369.849 4906.27 343.985 4893.28 321.633C4880.29 299.281 4862.44 281.719 4839.71 268.946C4817.63 256.174 4791.98 249.788 4762.76 249.788C4732.89 249.788 4706.59 256.174 4683.86 268.946C4661.78 281.719 4644.25 299.6 4631.26 322.591C4618.93 344.943 4612.75 371.445 4612.75 402.099V421.258C4612.75 451.912 4619.9 479.054 4634.18 502.683C4648.47 526.312 4668.6 544.512 4694.57 557.285C4720.55 570.058 4750.42 576.444 4784.19 576.444C4813.41 576.444 4839.71 571.974 4863.08 563.033C4886.46 554.092 4907.24 540.042 4925.42 520.883L4990.68 594.645C4967.31 621.467 4937.76 642.219 4902.05 656.91C4866.98 670.958 4826.72 677.985 4781.26 677.985Z" fill="#0FA4FA"/>
<mask id="mask0_4826_7489" style="mask-type:alpha" maskUnits="userSpaceOnUse" x="747" y="135" width="566" height="543">
<path d="M1029.92 677.903C1186.17 677.903 1312.84 556.37 1312.84 406.452C1312.84 256.533 1186.17 135 1029.92 135C873.667 135 747 256.533 747 406.452C747 556.37 873.667 677.903 1029.92 677.903Z" fill="#0096ED"/>
</mask>
<g mask="url(#mask0_4826_7489)">
<path d="M1029.92 677.903C1186.17 677.903 1312.84 556.37 1312.84 406.452C1312.84 256.533 1186.17 135 1029.92 135C873.667 135 747 256.533 747 406.452C747 556.37 873.667 677.903 1029.92 677.903Z" fill="#0096ED"/>
<path d="M1029.64 292.934L1663.92 797.53H395.369L1029.64 292.934Z" fill="#2254C5"/>
<path d="M1014.99 476.023H963.025C960.908 476.023 959.191 477.711 959.191 479.794V530.909C959.191 532.991 960.908 534.679 963.025 534.679H1014.99C1017.11 534.679 1018.83 532.991 1018.83 530.909V479.794C1018.83 477.711 1017.11 476.023 1014.99 476.023Z" fill="white"/>
<path d="M1088.45 476.023H1036.48C1034.37 476.023 1032.65 477.711 1032.65 479.794V530.909C1032.65 532.991 1034.37 534.679 1036.48 534.679H1088.45C1090.57 534.679 1092.29 532.991 1092.29 530.909V479.794C1092.29 477.711 1090.57 476.023 1088.45 476.023Z" fill="white"/>
<path d="M1014.99 546.949H963.025C960.908 546.949 959.191 548.637 959.191 550.719V601.834C959.191 603.917 960.908 605.605 963.025 605.605H1014.99C1017.11 605.605 1018.83 603.917 1018.83 601.834V550.719C1018.83 548.637 1017.11 546.949 1014.99 546.949Z" fill="white"/>
<path d="M1088.45 546.949H1036.48C1034.37 546.949 1032.65 548.637 1032.65 550.719V601.834C1032.65 603.917 1034.37 605.605 1036.48 605.605H1088.45C1090.57 605.605 1092.29 603.917 1092.29 601.834V550.719C1092.29 548.637 1090.57 546.949 1088.45 546.949Z" fill="white"/>
</g>
</svg>
