<svg width="5134" height="692" viewBox="0 0 5134 692" fill="none" xmlns="http://www.w3.org/2000/svg">
<path d="M0 685.091V0H304.52C380.152 0 446.494 14.354 503.553 43.0628C560.611 71.7717 605.059 111.572 636.904 162.464C668.75 213.357 684.672 273.384 684.672 342.545C684.672 411.054 668.75 471.082 636.904 522.626C605.059 573.519 560.611 613.319 503.553 642.028C446.494 670.739 380.152 685.091 304.52 685.091H0ZM129.371 577.434H298.549C350.958 577.434 396.075 567.647 433.891 548.073C472.368 528.499 501.897 501.095 522.461 465.862C543.693 430.628 554.306 389.523 554.306 342.545C554.306 294.915 543.693 253.81 522.461 219.229C501.897 183.996 472.368 156.592 433.891 137.018C396.075 117.444 350.958 107.657 298.549 107.657H129.371V577.434ZM1451.65 685.091V162.464H1570.07V306.333L1556.14 264.249C1572.06 229.016 1596.94 202.265 1630.78 183.996C1665.27 165.727 1708.07 156.592 1759.15 156.592V273.058C1753.84 271.752 1748.87 271.1 1744.23 271.1C1739.58 270.448 1734.93 270.121 1730.29 270.121C1683.19 270.121 1645.7 283.823 1617.84 311.227C1589.98 337.978 1576.04 378.105 1576.04 431.607V685.091H1451.65ZM2535.42 156.592C2577.88 156.592 2615.37 164.748 2647.87 181.06C2681.05 197.371 2706.92 222.492 2725.5 256.42C2744.07 289.696 2753.36 332.758 2753.36 385.608V685.091H2628.96V401.267C2628.96 354.942 2618.68 320.362 2598.11 297.525C2577.55 274.689 2548.02 263.271 2509.55 263.271C2482.34 263.271 2458.13 269.143 2436.9 280.887C2416.33 292.632 2400.08 309.922 2388.14 332.758C2376.85 355.595 2371.22 384.629 2371.22 419.863V685.091H2246.82V401.267C2246.82 354.942 2236.54 320.362 2215.97 297.525C2195.41 274.689 2165.88 263.271 2127.4 263.271C2100.2 263.271 2075.99 269.143 2054.76 280.887C2034.19 292.632 2017.93 309.922 2005.99 332.758C1994.71 355.595 1989.07 384.629 1989.07 419.863V685.091H1864.68V162.464H1983.1V301.44L1962.21 260.334C1980.12 226.406 2005.99 200.634 2039.83 183.017C2074.32 165.4 2113.47 156.592 2157.26 156.592C2207.02 156.592 2250.14 168.663 2286.63 192.804C2323.78 216.945 2348.33 253.484 2360.27 302.419L2311.51 285.781C2328.76 246.633 2357.29 215.314 2397.09 191.825C2436.9 168.337 2483.01 156.592 2535.42 156.592Z" fill="white"/>
<path d="M3163.07 692C3104.02 692 3052.27 680.584 3007.82 657.745C2964.03 634.256 2929.86 602.286 2905.32 561.833C2881.43 521.379 2869.49 475.38 2869.49 423.836C2869.49 371.638 2881.1 325.639 2904.32 285.839C2928.21 245.386 2960.71 213.742 3001.85 190.905C3043.65 168.068 3091.08 156.65 3144.16 156.65C3195.91 156.65 3242.02 167.743 3282.48 189.926C3322.95 212.11 3354.8 243.428 3378.02 283.881C3401.24 324.335 3412.85 371.965 3412.85 426.772C3412.85 431.992 3412.52 437.864 3411.86 444.388C3411.86 450.913 3411.52 457.112 3410.86 462.984H2968.01V381.752H3345.18L3296.42 407.198C3297.08 377.185 3290.78 350.76 3277.51 327.923C3264.24 305.086 3246 287.144 3222.77 274.094C3200.22 261.045 3174.01 254.52 3144.16 254.52C3113.64 254.52 3086.77 261.045 3063.55 274.094C3040.99 287.144 3023.08 305.413 3009.81 328.902C2997.21 351.738 2990.9 378.815 2990.9 410.134V429.708C2990.9 461.026 2998.2 488.756 3012.8 512.897C3027.39 537.039 3047.96 555.634 3074.5 568.683C3101.03 581.733 3131.55 588.257 3166.05 588.257C3195.91 588.257 3222.78 583.69 3246.66 574.556C3270.54 565.421 3291.78 551.067 3310.35 531.493L3377.03 606.853C3353.14 634.256 3322.95 655.459 3286.47 670.468C3250.64 684.82 3209.5 692 3163.07 692ZM3845.17 685.149V579.449L3838.21 556.939V371.965C3838.21 336.079 3827.26 308.349 3805.37 288.775C3783.47 268.549 3750.3 258.435 3705.85 258.435C3675.99 258.435 3646.47 263.002 3617.28 272.137C3588.75 281.272 3564.54 293.995 3544.63 310.306L3495.87 221.245C3524.4 199.713 3558.23 183.728 3597.38 173.288C3637.18 162.196 3678.32 156.65 3720.78 156.65C3797.74 156.65 3857.11 174.919 3898.91 211.458C3941.37 247.343 3962.6 303.129 3962.6 378.815V685.149H3845.17ZM3677.98 692C3638.18 692 3603.35 685.478 3573.49 672.426C3543.64 658.724 3520.41 640.129 3503.83 616.64C3487.91 592.499 3479.95 565.421 3479.95 535.408C3479.95 506.047 3486.91 479.622 3500.85 456.133C3515.44 432.644 3539 414.049 3571.5 400.347C3604.01 386.645 3647.13 379.794 3700.87 379.794H3855.12V461.026H3709.83C3667.37 461.026 3638.84 467.877 3624.25 481.579C3609.65 494.629 3602.35 510.94 3602.35 530.514C3602.35 552.698 3611.31 570.314 3629.22 583.364C3647.13 596.414 3672.01 602.938 3703.86 602.938C3734.37 602.938 3761.58 596.087 3785.46 582.385C3810.01 568.683 3827.59 548.457 3838.21 521.706L3859.1 595.108C3847.16 625.777 3825.6 649.587 3794.42 666.554C3763.9 683.52 3725.09 692 3677.98 692ZM4286.45 692C4242 692 4199.21 686.456 4158.07 675.362C4117.61 663.617 4085.43 649.587 4061.54 633.278L4109.31 540.301C4133.19 555.308 4161.72 567.705 4194.89 577.492C4228.07 587.279 4261.24 592.172 4294.41 592.172C4333.56 592.172 4361.75 586.952 4379 576.513C4396.91 566.074 4405.87 552.046 4405.87 534.429C4405.87 520.075 4399.9 509.309 4387.96 502.132C4376.01 494.302 4360.43 488.43 4341.18 484.515C4321.94 480.6 4300.38 477.012 4276.5 473.749C4253.27 470.487 4229.72 466.246 4205.84 461.026C4182.62 455.154 4161.39 446.998 4142.15 436.559C4122.91 425.467 4107.32 410.786 4095.38 392.517C4083.44 374.248 4077.46 350.107 4077.46 320.093C4077.46 286.818 4087.08 258.109 4106.32 233.968C4125.57 209.174 4152.44 190.253 4186.93 177.203C4222.1 163.501 4263.56 156.65 4311.33 156.65C4347.15 156.65 4383.31 160.565 4419.8 168.395C4456.29 176.224 4486.48 187.317 4510.36 201.671L4462.59 294.647C4437.38 279.64 4411.84 269.527 4385.97 264.307C4360.75 258.435 4335.55 255.499 4310.33 255.499C4272.52 255.499 4244.32 261.045 4225.74 272.137C4207.83 283.229 4198.87 297.257 4198.87 314.221C4198.87 329.88 4204.85 341.625 4216.79 349.454C4228.73 357.284 4244.32 363.483 4263.56 368.05C4282.8 372.617 4304.03 376.532 4327.25 379.794C4351.13 382.404 4374.68 386.645 4397.91 392.517C4421.13 398.389 4442.36 406.546 4461.6 416.985C4481.5 426.772 4497.42 440.8 4509.37 459.069C4521.31 477.338 4527.28 501.153 4527.28 530.514C4527.28 563.138 4517.33 591.52 4497.42 615.661C4478.18 639.8 4450.65 658.724 4414.83 672.426C4379 685.478 4336.21 692 4286.45 692ZM4884.19 692C4825.14 692 4773.4 680.584 4728.95 657.745C4685.16 634.256 4650.99 602.286 4626.44 561.833C4602.56 521.379 4590.62 475.38 4590.62 423.836C4590.62 371.638 4602.23 325.639 4625.45 285.839C4649.33 245.386 4681.84 213.742 4722.98 190.905C4764.77 168.068 4812.21 156.65 4865.28 156.65C4917.03 156.65 4963.14 167.743 5003.61 189.926C5044.08 212.11 5075.92 243.428 5099.15 283.881C5122.37 324.335 5133.98 371.965 5133.98 426.772C5133.98 431.992 5133.64 437.864 5132.98 444.388C5132.98 450.913 5132.65 457.112 5131.99 462.984H4689.14V381.752H5066.31L5017.54 407.198C5018.21 377.185 5011.91 350.76 4998.64 327.923C4985.36 305.086 4967.13 287.144 4943.9 274.094C4921.35 261.045 4895.14 254.52 4865.28 254.52C4834.77 254.52 4807.9 261.045 4784.68 274.094C4762.12 287.144 4744.21 305.413 4730.94 328.902C4718.33 351.738 4712.03 378.815 4712.03 410.134V429.708C4712.03 461.026 4719.33 488.756 4733.92 512.897C4748.52 537.039 4769.09 555.634 4795.62 568.683C4822.16 581.733 4852.68 588.257 4887.18 588.257C4917.03 588.257 4943.9 583.69 4967.79 574.556C4991.67 565.421 5012.9 551.067 5031.48 531.493L5098.15 606.853C5074.27 634.256 5044.08 655.459 5007.59 670.468C4971.77 684.82 4930.63 692 4884.19 692Z" fill="#4EBEFF"/>
<mask id="mask0_4915_7971" style="mask-type:alpha" maskUnits="userSpaceOnUse" x="762" y="137" width="579" height="555">
<path d="M1051.52 691.879C1211.16 691.879 1340.57 567.711 1340.57 414.543C1340.57 261.375 1211.16 137.207 1051.52 137.207C891.883 137.207 762.471 261.375 762.471 414.543C762.471 567.711 891.883 691.879 1051.52 691.879Z" fill="#0096ED"/>
</mask>
<g mask="url(#mask0_4915_7971)">
<path d="M1051.52 691.879C1211.16 691.879 1340.57 567.711 1340.57 414.543C1340.57 261.375 1211.16 137.207 1051.52 137.207C891.883 137.207 762.471 261.375 762.471 414.543C762.471 567.711 891.883 691.879 1051.52 691.879Z" fill="#4EBEFF"/>
<path d="M1051.23 298.594L1699.26 814.128H403.211L1051.23 298.594Z" fill="#1F4BB1"/>
<path d="M1036.29 485.658H983.199C981.037 485.658 979.283 487.383 979.283 489.51V541.733C979.283 543.861 981.037 545.585 983.199 545.585H1036.29C1038.46 545.585 1040.21 543.861 1040.21 541.733V489.51C1040.21 487.383 1038.46 485.658 1036.29 485.658Z" fill="#4EBEFF"/>
<path d="M1111.33 485.658H1058.24C1056.08 485.658 1054.32 487.383 1054.32 489.51V541.733C1054.32 543.861 1056.08 545.585 1058.24 545.585H1111.33C1113.5 545.585 1115.25 543.861 1115.25 541.733V489.51C1115.25 487.383 1113.5 485.658 1111.33 485.658Z" fill="#4EBEFF"/>
<path d="M1036.29 558.076H983.199C981.037 558.076 979.283 559.801 979.283 561.928V614.151C979.283 616.278 981.037 618.003 983.199 618.003H1036.29C1038.46 618.003 1040.21 616.278 1040.21 614.151V561.928C1040.21 559.801 1038.46 558.076 1036.29 558.076Z" fill="#4EBEFF"/>
<path d="M1111.33 558.076H1058.24C1056.08 558.076 1054.32 559.801 1054.32 561.928V614.151C1054.32 616.278 1056.08 618.003 1058.24 618.003H1111.33C1113.5 618.003 1115.25 616.278 1115.25 614.151V561.928C1115.25 559.801 1113.5 558.076 1111.33 558.076Z" fill="#4EBEFF"/>
</g>
</svg>
