<svg width="42" height="26" viewBox="0 0 42 26" fill="none" xmlns="http://www.w3.org/2000/svg">
<path d="M42 11.1429H38.1818V7.42857H34.3636V11.1429H30.5455V14.8571H34.3636V18.5714H38.1818V14.8571H42M13.3636 11.1429V15.6H21C20.6182 17.4571 18.7091 21.1714 13.3636 21.1714C8.78182 21.1714 5.15455 17.4571 5.15455 13C5.15455 8.54286 8.78182 4.82857 13.3636 4.82857C16.0364 4.82857 17.7545 5.94286 18.7091 6.87143L22.3364 3.52857C20.0455 1.3 16.9909 0 13.3636 0C5.91818 0 0 5.75714 0 13C0 20.2429 5.91818 26 13.3636 26C21 26 26.1545 20.8 26.1545 13.3714C26.1545 12.4429 26.1545 11.8857 25.9636 11.1429H13.3636Z" fill="#2254C5"/>
</svg>
