<svg width="21" height="25" viewBox="0 0 21 25" fill="none" xmlns="http://www.w3.org/2000/svg">
<path d="M10.5 0C9.17392 0 7.90215 0.526784 6.96447 1.46447C6.02678 2.40215 5.5 3.67392 5.5 5C5.5 6.32608 6.02678 7.59785 6.96447 8.53553C7.90215 9.47322 9.17392 10 10.5 10C11.8261 10 13.0979 9.47322 14.0355 8.53553C14.9732 7.59785 15.5 6.32608 15.5 5C15.5 3.67392 14.9732 2.40215 14.0355 1.46447C13.0979 0.526784 11.8261 0 10.5 0ZM16.75 12.5H4.25C3.25544 12.5 2.30161 12.8951 1.59835 13.5983C0.895088 14.3016 0.5 15.2554 0.5 16.25C0.5 19.04 1.6475 21.275 3.53 22.7875C5.3825 24.275 7.8675 25 10.5 25C13.1325 25 15.6175 24.275 17.47 22.7875C19.35 21.275 20.5 19.04 20.5 16.25C20.5 15.2554 20.1049 14.3016 19.4017 13.5983C18.6984 12.8951 17.7446 12.5 16.75 12.5Z" fill="#2254C5"/>
</svg>
