<svg width="24" height="25" viewBox="0 0 24 25" fill="none" xmlns="http://www.w3.org/2000/svg">
<path d="M10.625 11.8125C12.1914 11.8125 13.6937 11.1902 14.8013 10.0826C15.909 8.97496 16.5312 7.47269 16.5312 5.90625C16.5312 4.33982 15.909 2.83754 14.8013 1.7299C13.6937 0.622264 12.1914 0 10.625 0C9.05857 0 7.55629 0.622264 6.44865 1.7299C5.34101 2.83754 4.71875 4.33982 4.71875 5.90625C4.71875 7.47269 5.34101 8.97496 6.44865 10.0826C7.55629 11.1902 9.05857 11.8125 10.625 11.8125ZM3.45312 13.5C2.66991 13.5 1.91877 13.8111 1.36495 14.365C0.811132 14.9188 0.5 15.6699 0.5 16.4531V16.875C0.5 18.8941 1.78503 20.6018 3.60922 21.7628C5.15328 22.7458 7.1555 23.393 9.35938 23.5735V22.1122C9.35947 21.6646 9.53732 21.2355 9.85381 20.9191L13.6811 17.0918C13.4401 15.8708 13.6216 14.6042 14.1958 13.5H3.45312ZM22.046 19.0139C21.553 19.5073 20.9453 19.8708 20.2774 20.0718C19.6095 20.2727 18.9022 20.305 18.2188 20.1656V20.6727C18.2188 20.7846 18.1743 20.8919 18.0952 20.971C18.0161 21.0501 17.9088 21.0946 17.7969 21.0946H16.9531C16.8412 21.0946 16.7339 21.139 16.6548 21.2182C16.5757 21.2973 16.5312 21.4046 16.5312 21.5165V22.3602C16.5312 22.4721 16.4868 22.5794 16.4077 22.6585C16.3286 22.7376 16.2213 22.7821 16.1094 22.7821H15.2656C15.1537 22.7821 15.0464 22.8265 14.9673 22.9057C14.8882 22.9848 14.8438 23.0921 14.8438 23.204V24.0477C14.8438 24.1596 14.7993 24.2669 14.7202 24.346C14.6411 24.4251 14.5338 24.4696 14.4219 24.4696H11.0469C10.935 24.4696 10.8277 24.4251 10.7486 24.346C10.6694 24.2669 10.625 24.1596 10.625 24.0477V22.113C10.625 22.0013 10.6693 21.8942 10.7482 21.8152L15.0943 17.469C14.837 16.7584 14.7753 15.9916 14.9157 15.249C15.0561 14.5063 15.3934 13.815 15.8924 13.2474C16.3914 12.6797 17.0338 12.2565 17.7523 12.022C18.4708 11.7876 19.2391 11.7504 19.9769 11.9145C20.7146 12.0786 21.3948 12.4378 21.9462 12.9547C22.4976 13.4716 22.9001 14.1271 23.1114 14.8528C23.3228 15.5784 23.3354 16.3475 23.1478 17.0797C22.9602 17.8118 22.5794 18.4801 22.0452 19.0148M19.6582 15.4356C19.736 15.5162 19.8291 15.5804 19.9321 15.6246C20.035 15.6689 20.1457 15.6921 20.2578 15.6931C20.3698 15.6941 20.4809 15.6727 20.5846 15.6303C20.6883 15.5879 20.7825 15.5252 20.8617 15.446C20.9409 15.3668 21.0036 15.2726 21.046 15.1689C21.0884 15.0652 21.1098 14.9541 21.1088 14.8421C21.1078 14.73 21.0846 14.6193 21.0403 14.5164C20.9961 14.4134 20.9318 14.3203 20.8513 14.2425C20.6921 14.0888 20.479 14.0038 20.2578 14.0057C20.0365 14.0076 19.8249 14.0963 19.6685 14.2528C19.512 14.4092 19.4233 14.6208 19.4214 14.8421C19.4194 15.0633 19.5045 15.2764 19.6582 15.4356Z" fill="#2254C5"/>
</svg>
