<svg width="25" height="24" viewBox="0 0 25 24" fill="none" xmlns="http://www.w3.org/2000/svg">
<path d="M13.2453 0.946875C12.7859 0.684375 12.2187 0.684375 11.7546 0.946875L1.25463 6.94687C0.664 7.28437 0.373375 7.97812 0.546813 8.63437C0.72025 9.29062 1.32025 9.75 1.99994 9.75H3.49994V19.5L1.09994 21.3C0.72025 21.5812 0.499938 22.0266 0.499938 22.5C0.499938 23.3297 1.17025 24 1.99994 24H22.9999C23.8296 24 24.4999 23.3297 24.4999 22.5C24.4999 22.0266 24.2796 21.5812 23.8999 21.3L21.4999 19.5V9.75H22.9999C23.6796 9.75 24.2749 9.29062 24.4484 8.63437C24.6218 7.97812 24.3312 7.28437 23.7406 6.94687L13.2406 0.946875H13.2453ZM19.2499 9.75V19.5H16.2499V9.75H19.2499ZM13.9999 9.75V19.5H10.9999V9.75H13.9999ZM8.74994 9.75V19.5H5.74994V9.75H8.74994ZM12.4999 4.5C12.8978 4.5 13.2793 4.65804 13.5606 4.93934C13.8419 5.22064 13.9999 5.60218 13.9999 6C13.9999 6.39782 13.8419 6.77936 13.5606 7.06066C13.2793 7.34196 12.8978 7.5 12.4999 7.5C12.1021 7.5 11.7206 7.34196 11.4393 7.06066C11.158 6.77936 10.9999 6.39782 10.9999 6C10.9999 5.60218 11.158 5.22064 11.4393 4.93934C11.7206 4.65804 12.1021 4.5 12.4999 4.5Z" fill="#2254C5"/>
</svg>
