<svg width="84" height="116" viewBox="0 0 84 116" fill="none" xmlns="http://www.w3.org/2000/svg">
<g clip-path="url(#clip0_4865_6969)">
<circle opacity="0.1" cx="26.499" cy="57.5" r="56.5" fill="#2254C5"/>
<path d="M43.873 24.9585C46 24.3557 48.2125 25.5927 48.8131 27.7202L68.2092 96.4262C69.1771 99.8549 65.5175 102.743 62.4078 101.004L-25.6748 51.7631C-28.7846 50.0246 -28.2413 45.3945 -24.8136 44.4232L43.873 24.9585Z" fill="#2254C5" fill-opacity="0.9"/>
<rect x="51.7734" y="29.1562" width="32.4776" height="32.4776" transform="rotate(33.8976 51.7734 29.1562)" fill="#2254C5" fill-opacity="0.9"/>
<rect x="11.7734" y="11.1562" width="32.4776" height="32.4776" transform="rotate(33.8976 11.7734 11.1562)" fill="#2254C5" fill-opacity="0.9"/>
<path d="M18.0117 69.2188L50.3198 72.5329L47.0056 104.841L14.6975 101.527L18.0117 69.2188Z" fill="#2254C5" fill-opacity="0.9"/>
<rect x="-9.42969" y="46.1562" width="32.4776" height="32.4776" transform="rotate(35.6099 -9.42969 46.1562)" fill="#2254C5" fill-opacity="0.9"/>
</g>
<defs>
<clipPath id="clip0_4865_6969">
<rect width="84" height="116" fill="white"/>
</clipPath>
</defs>
</svg>
