<svg width="81" height="102" viewBox="0 0 81 102" fill="none" xmlns="http://www.w3.org/2000/svg">
<g clip-path="url(#clip0_4865_6970)">
<circle opacity="0.1" cx="56" cy="51" r="51" fill="#2254C5"/>
<path d="M52.672 18.381C53.8776 16.5279 56.3577 16.0041 58.2096 17.2116L106.419 48.6438C109.403 50.5896 108.546 55.1721 105.06 55.9082L25.4674 72.7163C21.9816 73.4525 19.3452 69.6076 21.288 66.6213L52.672 18.381Z" fill="#2254C5" fill-opacity="0.9"/>
<rect x="60.3203" y="16.1289" width="27.1921" height="27.1921" transform="rotate(-7.23344 60.3203 16.1289)" fill="#2254C5" fill-opacity="0.9"/>
<rect x="25.1826" y="26.8086" width="27.1921" height="27.1921" transform="rotate(-7.23344 25.1826 26.8086)" fill="#2254C5" fill-opacity="0.9"/>
<path d="M61.0947 59.9844L83.2943 44.2812L98.9975 66.4808L76.7979 82.184L61.0947 59.9844Z" fill="#2254C5" fill-opacity="0.9"/>
<rect x="31.0879" y="60.5586" width="27.1921" height="27.1921" transform="rotate(-5.52121 31.0879 60.5586)" fill="#2254C5" fill-opacity="0.9"/>
</g>
<defs>
<clipPath id="clip0_4865_6970">
<rect width="81" height="102" fill="white"/>
</clipPath>
</defs>
</svg>
